# xmcd
#
# Track frame offsets:
# 150
# 13481
# 28578
# 49868
# 65360
# 84263
# 103503
# 120696
# 138592
# 153949
# 173113
# 189714
# 208296
# 226833
# 246352
# 262705
# 276648
# 297060
# 313761
# 332388
#
# Disc length: 4685 seconds
#
#
# Revision: 0
# Processed by: cddbd v1.5.2PL0 Copyright (c) Steve Scherf et al.
# Submitted via: FreeRIP 2.951 
#
DISCID=21124b14
DTITLE=Leandro and Leonardo - As 20 Mais
DYEAR=2010
DGENRE=Sertanejo
TTITLE0=Casa Separa
TTITLE1=Conta Prá Ela
TTITLE2=Copo de Vinho
TTITLE3=Coração Quer te Encontrar
TTITLE4=Desculpe Mas Eu Vou Chorar
TTITLE5=Deu Medo
TTITLE6=Diz Pra MIm
TTITLE7=Doce Mistério
TTITLE8=Entre Tapas e Beijos
TTITLE9=Essas Mulheres
TTITLE10=Essa Noite Foi Maravilhosa
TTITLE11=Gostoso Sentimento
TTITLE12=Horizonte Azul
TTITLE13=Eu Juro
TTITLE14=Bobo
TTITLE15=Cadê Você
TTITLE16=A Rotina
TTITLE17=A Vida Tem Dessas Coisas
TTITLE18=Amor de Novela
TTITLE19=Amor Dividido
EXTD=
EXTT0=
EXTT1=
EXTT2=
EXTT3=
EXTT4=
EXTT5=
EXTT6=
EXTT7=
EXTT8=
EXTT9=
EXTT10=
EXTT11=
EXTT12=
EXTT13=
EXTT14=
EXTT15=
EXTT16=
EXTT17=
EXTT18=
EXTT19=
PLAYORDER=
